# xmcd
#
# Track frame offsets:
#	150
#	23576
#	44125
#	59352
#	72378
#	92541
#	112355
#	131030
#	147668
#	165926
#	182362
#	198289
#	223645
#	250993
#	267039
#	284290
#	304470
#	319467
#	332197
#	345063
#
# Disc length: 4813 seconds
#
# Revision: 1
# Processed by: cddbd v1.5.2PL0 Copyright (c) Steve Scherf et al.
# Submitted via: audiograbber 1.80
#
DISCID=3712cb14
DTITLE=OLD SKOÖL OF ROCK - CD 2
DYEAR=1900
DGENRE=
TTITLE0=WHITE SNAKE - HERE I GO AGAIN
TTITLE1=MÖTLEY CRÜE - GIRLS, GIRLS, GIRLS
TTITLE2=SKID ROW - YOUTH GONE WILD
TTITLE3=DAVID LEE ROTH - CALIFORNIA GIRLS
TTITLE4=RATT - ROUND and ROUND
TTITLE5=UGLY KIDD JOE - EVERYTHING ABOUT YOU
TTITLE6=TESLA - LOVE SONG
TTITLE7=KINGDOM COME - DO YOU LIKE IT
TTITLE8=VAIN - BEAT THE BULLET
TTITLE9=L.A GUNS - SEX ACTION
TTITLE10=MR. BIG - TO BE WITH YOU
TTITLE11=EXREME - MORE THAN WORDS
TTITLE12=DEEP PURPLE - BURN
TTITLE13=THIN LIZZY - WAITING FOR AN ALIBI
TTITLE14=RAINBOW - SINCE YOU´VE BEEN GONE
TTITLE15=YNGWIE MALMSTEEN - RISING FORCE
TTITLE16=DIO - STAND UP AND SHOUT
TTITLE17=MOTÖRHEAD - ACE OF SPADES
TTITLE18=BLACK SABBATH - PARANOID
TTITLE19=JUDAS PRIEST - LIVING AFTER MIDNIGHT
EXTD=
EXTT0=
EXTT1=
EXTT2=
EXTT3=
EXTT4=
EXTT5=
EXTT6=
EXTT7=
EXTT8=
EXTT9=
EXTT10=
EXTT11=
EXTT12=
EXTT13=
EXTT14=
EXTT15=
EXTT16=
EXTT17=
EXTT18=
EXTT19=
PLAYORDER=
